# Object Export From Tinkercad Server 2015

mtllib obj.mtl

o obj_0
v 5.005 		-2 		22.996
v -5.6509 		-2 		22.996
v 6.366 		-2 		8.332
v 13 		-2 		14.645
v 9 		-2 		14.663
v 5.292 		-2 		7.31
v 2.443 		3 		4.606
v -0.409 		-2 		2.081
v -0.315 		-2 		2.001
v -0.22 		-2 		2.087
v 5.005 		-2 		14.676
v 0.038 		-2 		2.33
v 0.448 		-2 		2.717
v 1.665 		3 		3.869
v 0.995 		-2 		3.234
v 1.665 		-2 		3.869
v 3.316 		-2 		5.435
v 5.005 		3 		22.996
v -5.6509 		3 		22.996
v 2.443 		-2 		4.606
v 9 		3 		14.663
v 4.271 		-2 		6.341
v -2.297 		-2 		3.85
v 4.271 		3 		6.341
v 3.316 		3 		5.435
v -2.297 		3 		3.85
v -1.626 		-2 		3.218
v 13 		3 		14.645
v -1.079 		-2 		2.704
v -0.668 		-2 		2.321
v -5.931 		-2 		7.291
v -5.931 		3 		7.291
v -13.664 		-2 		14.645
v -7.007 		-2 		8.314
v 5.005 		3 		14.676
v -0.409 		3 		2.081
v -5.646 		-2 		14.676
v 5.292 		3 		7.31
v -9.652 		-2 		14.663
v -5.646 		3 		14.676
v -1.079 		3 		2.704
v -0.668 		3 		2.321
v 6.366 		3 		8.332
v -4.908 		3 		6.32
v -4.908 		-2 		6.32
v -3.952 		3 		5.413
v -3.952 		-2 		5.413
v -0.22 		3 		2.087
v -0.315 		3 		2.001
v -3.077 		3 		4.586
v -3.077 		-2 		4.586
v 0.038 		3 		2.33
v -1.626 		3 		3.218
v -9.652 		3 		14.663
v 0.995 		3 		3.234
v 0.448 		3 		2.717
v -13.664 		3 		14.645
v -7.007 		3 		8.314
# 58 vertices

g group_0_40919

usemtl color_40919
s 0

f 1 	2 	37
f 3 	4 	5
f 5 	11 	3
f 22 	6 	11
f 1 	37 	11
f 37 	34 	11
f 18 	19 	2
f 18 	2 	1
f 17 	47 	20
f 21 	5 	4
f 21 	4 	28
f 8 	9 	10
f 27 	29 	13
f 13 	15 	27
f 23 	27 	15
f 16 	23 	15
f 20 	51 	16
f 22 	47 	17
f 6 	3 	11
f 12 	13 	29
f 10 	12 	30
f 30 	12 	29
f 8 	10 	30
f 25 	35 	24
f 1 	11 	35
f 31 	11 	34
f 37 	39 	34
f 33 	34 	39
f 30 	29 	41
f 30 	41 	42
f 36 	8 	30
f 36 	30 	42
f 17 	20 	7
f 43 	3 	6
f 43 	6 	38
f 44 	45 	31
f 44 	31 	32
f 46 	47 	45
f 46 	45 	44
f 9 	8 	36
f 9 	36 	49
f 48 	10 	9
f 48 	9 	49
f 4 	3 	43
f 4 	43 	28
f 50 	51 	47
f 50 	47 	46
f 20 	16 	14
f 20 	14 	7
f 12 	10 	48
f 12 	48 	52
f 51 	20 	47
f 22 	11 	47
f 23 	16 	51
f 45 	47 	11
f 31 	45 	11
f 23 	51 	50
f 23 	50 	26
f 53 	27 	23
f 53 	23 	26
f 21 	35 	11
f 21 	11 	5
f 54 	39 	37
f 54 	37 	40
f 14 	16 	15
f 14 	15 	55
f 35 	40 	18
f 19 	18 	40
f 56 	13 	12
f 56 	12 	52
f 25 	7 	35
f 14 	35 	7
f 42 	41 	52
f 52 	48 	42
f 36 	42 	48
f 49 	36 	48
f 56 	52 	41
f 41 	53 	56
f 55 	56 	53
f 14 	55 	53
f 26 	35 	53
f 57 	33 	39
f 57 	39 	54
f 24 	22 	17
f 24 	17 	25
f 41 	29 	27
f 41 	27 	53
f 24 	35 	38
f 43 	38 	35
f 28 	43 	21
f 15 	13 	56
f 15 	56 	55
f 57 	54 	58
f 54 	40 	58
f 40 	35 	58
f 58 	34 	33
f 58 	33 	57
f 21 	43 	35
f 24 	38 	22
f 6 	22 	38
f 32 	31 	34
f 32 	34 	58
f 50 	35 	26
f 14 	53 	35
f 35 	50 	46
f 35 	46 	44
f 35 	44 	32
f 32 	58 	35
f 25 	17 	7
f 40 	37 	19
f 2 	19 	37
f 18 	1 	35
# 112 faces

 #end of obj_0

